<svg width="60" height="60" viewBox="0 0 60 60" fill="none" xmlns="http://www.w3.org/2000/svg">
<rect width="60" height="60" rx="10" fill="#050505"/>
<circle cx="13.748" cy="14.5" r="6.5" fill="white"/>
<circle cx="29.748" cy="14.5" r="6.5" fill="white"/>
<path d="M20.0002 30.4954C20.0002 34.0852 17.0901 36.9954 13.5002 36.9954C9.91036 36.9954 7.00021 34.0852 7.00021 30.4954C7.00021 26.9055 9.91036 23.9954 13.5002 23.9954C17.0901 23.9954 20.0002 26.9055 20.0002 30.4954Z" fill="white"/>
<path d="M9.24805 26C12.2128 23.2 10.4833 20.1667 9.24805 19H18.248C15.7069 22.2 17.1892 25 18.248 26H9.24805Z" fill="white"/>
<path d="M25.248 42C28.2128 39.2 26.4833 36.1667 25.248 35H34.248C31.7069 38.2 33.1892 41 34.248 42H25.248Z" fill="white"/>
<path d="M18.248 26C21.048 28.9647 24.0814 27.2353 25.248 26V35C22.048 32.4588 19.248 33.9412 18.248 35V26Z" fill="white"/>
<circle cx="29.748" cy="30.5" r="6.5" fill="white"/>
<circle cx="29.748" cy="46.5" r="6.5" fill="white"/>
<circle cx="45.748" cy="30.5" r="6.5" fill="white"/>
</svg>
